<?xml version="1.0" encoding="UTF-8"?><svg id="Layer_2" xmlns="http://www.w3.org/2000/svg" viewBox="0 0 64.44 55.25"><defs><style>.cls-1{stroke-width:2px;}.cls-1,.cls-2{fill:none;stroke:#fff;stroke-linecap:round;stroke-linejoin:round;}.cls-2{stroke-width:3px;}</style></defs><g id="Layer_1-2"><g id="Light_Snow"><path class="cls-2" d="M12.03,41.88c-5.82,0-10.53-4.14-10.53-9.96,0-4.98,3.45-9.15,8.09-10.25-.29-.85-.44-1.76-.44-2.71,0-4.68,3.8-8.48,8.48-8.48,2.32,0,4.43,.94,5.96,2.45h0c2.06-4.55,6.64-7.71,11.96-7.71,7.25,0,13.13,5.88,13.13,13.13,0,.93-.28,2.71-.28,2.71h0c4.7,1.05,8.22,5.25,8.22,10.27,0,5.82-4.72,10.53-10.53,10.53"/><path class="cls-2" d="M39.8,5.93c1.91-2.15,4.53-3.69,7.58-4.23,7.2-1.27,14.08,3.53,15.35,10.74,1.05,5.95-2.05,11.69-7.23,14.21"/><g><line class="cls-1" x1="29.06" y1="29.5" x2="29.06" y2="54.25"/><line class="cls-1" x1="41.43" y1="41.88" x2="16.68" y2="41.88"/><polyline class="cls-1" points="18.68 38.29 22.27 41.88 18.68 45.46"/><polyline class="cls-1" points="39.43 45.46 35.85 41.88 39.43 38.29"/><polyline class="cls-1" points="25.47 52.25 29.06 48.67 32.64 52.25"/><polyline class="cls-1" points="32.64 31.5 29.06 35.08 25.47 31.5"/><line class="cls-1" x1="37.81" y1="33.13" x2="20.31" y2="50.63"/><line class="cls-1" x1="37.81" y1="50.63" x2="20.31" y2="33.13"/></g></g></g></svg>