<?xml version="1.0" encoding="UTF-8"?><svg id="Layer_2" xmlns="http://www.w3.org/2000/svg" viewBox="0 0 64.46 65.14"><defs><style>.cls-1{fill:none;stroke:#fff;stroke-linecap:round;stroke-linejoin:round;stroke-width:3px;}</style></defs><g id="Layer_1-2"><g id="Light_Rain"><line class="cls-1" x1="11.72" y1="52.72" x2="10.94" y2="58.21"/><line class="cls-1" x1="19.76" y1="52.72" x2="18.21" y2="63.64"/><line class="cls-1" x1="28.09" y1="52.72" x2="26.54" y2="63.64"/><line class="cls-1" x1="36.14" y1="52.72" x2="35.36" y2="58.21"/><path class="cls-1" d="M39.9,29.05c3.85,.87,6.73,4.3,6.73,8.41,0,4.76-3.86,8.62-8.62,8.62H10.12c-4.76,0-8.62-3.39-8.62-8.15,0-4.07,2.82-7.49,6.62-8.39-.23-.7-.36-1.44-.36-2.21,0-3.83,3.11-6.94,6.94-6.94,1.9,0,3.63,.77,4.88,2h0c1.69-3.72,5.44-6.31,9.79-6.31,5.94,0,10.75,4.81,10.75,10.75,0,.76-.23,2.22-.23,2.22h0Z"/><path class="cls-1" d="M32.86,16.66c1.56-1.76,3.71-3.02,6.21-3.46,5.9-1.04,11.53,2.89,12.57,8.79,.86,4.88-1.68,9.57-5.92,11.63"/><line class="cls-1" x1="40.98" y1="5.71" x2="40.95" y2="1.5"/><line class="cls-1" x1="58.74" y1="25.53" x2="62.96" y2="25.5"/><line class="cls-1" x1="54.41" y1="11.08" x2="57.37" y2="8.08"/><line class="cls-1" x1="26.5" y1="11.08" x2="23.54" y2="8.08"/><line class="cls-1" x1="55.71" y1="40.77" x2="52.76" y2="37.77"/></g></g></svg>