<?xml version="1.0" encoding="UTF-8"?><svg id="Layer_2" xmlns="http://www.w3.org/2000/svg" viewBox="0 0 62.67 50.1"><defs><style>.cls-1{fill:none;stroke:#fff;stroke-linecap:round;stroke-linejoin:round;stroke-width:3px;}</style></defs><g id="Layer_1-2"><g id="nCloiudy"><path class="cls-1" d="M45.42,29.12c4.4,.99,7.69,4.92,7.69,9.62,0,5.45-4.42,9.86-9.86,9.86H11.36c-5.45,0-9.86-3.88-9.86-9.32,0-4.66,3.23-8.57,7.58-9.6-.27-.79-.41-1.65-.41-2.53,0-4.39,3.55-7.94,7.94-7.94,2.18,0,4.15,.88,5.58,2.29h0c1.93-4.26,6.22-7.22,11.2-7.22,6.79,0,12.3,5.5,12.3,12.3,0,.87-.26,2.54-.26,2.54h0Z"/><path class="cls-1" d="M47.37,27.02c7.07,0,13.81-5.73,13.81-12.81,0-.06,0-.12,0-.18-1.75,2.14-4.4,3.51-7.38,3.51-5.26,0-9.52-4.26-9.52-9.52,0-2.53,.99-4.82,2.6-6.52-6.36,.75-11.29,5.15-11.29,11.71"/></g></g></svg>