<?xml version="1.0" encoding="UTF-8"?><svg id="Layer_2" xmlns="http://www.w3.org/2000/svg" viewBox="0 0 54.19 61.37"><defs><style>.cls-1{fill:none;stroke:#fff;stroke-linecap:round;stroke-linejoin:round;stroke-width:3px;}</style></defs><g id="Layer_1-2"><g id="nLight_Rain"><line class="cls-1" x1="9.91" y1="48.95" x2="9.13" y2="54.44"/><line class="cls-1" x1="17.95" y1="48.95" x2="16.4" y2="59.87"/><line class="cls-1" x1="26.29" y1="48.95" x2="24.73" y2="59.87"/><line class="cls-1" x1="34.33" y1="48.95" x2="33.55" y2="54.44"/><path class="cls-1" d="M36.09,26.61c3.47,.78,6.06,3.88,6.06,7.58,0,4.29-3.48,7.77-7.77,7.77H9.27c-4.29,0-7.77-3.05-7.77-7.34,0-3.67,2.55-6.75,5.96-7.56-.21-.62-.32-1.3-.32-1.99,0-3.45,2.8-6.25,6.25-6.25,1.71,0,3.27,.69,4.4,1.81h0c1.52-3.36,4.9-5.69,8.82-5.69,5.35,0,9.68,4.34,9.68,9.68,0,.69-.21,2-.21,2h0Z"/><path class="cls-1" d="M38.88,27.02c7.07,0,13.81-5.73,13.81-12.81,0-.06,0-.12,0-.18-1.75,2.14-4.4,3.51-7.38,3.51-5.26,0-9.52-4.26-9.52-9.52,0-2.53,.99-4.82,2.6-6.52-6.36,.75-11.29,5.15-11.29,11.71"/></g></g></svg>