<?xml version="1.0" encoding="UTF-8"?><svg id="Layer_2" xmlns="http://www.w3.org/2000/svg" viewBox="0 0 64.44 43.38"><defs><style>.cls-1{fill:none;stroke:#fff;stroke-linecap:round;stroke-linejoin:round;stroke-width:3px;}</style></defs><g id="Layer_1-2"><g id="Partly_CLoudy"><path class="cls-1" d="M48.4,21.07c4.7,1.06,8.22,5.26,8.22,10.28,0,5.82-4.72,10.53-10.53,10.53H12.03c-5.82,0-10.53-4.14-10.53-9.96,0-4.98,3.45-9.15,8.09-10.25-.29-.85-.44-1.76-.44-2.7,0-4.68,3.8-8.48,8.48-8.48,2.32,0,4.43,.94,5.96,2.45h0c2.06-4.55,6.64-7.71,11.96-7.71,7.25,0,13.13,5.88,13.13,13.13,0,.93-.28,2.71-.28,2.71h0Z"/><path class="cls-1" d="M39.8,5.93c1.91-2.15,4.53-3.69,7.58-4.23,7.2-1.27,14.08,3.53,15.35,10.74,1.05,5.96-2.05,11.68-7.23,14.21"/></g></g></svg>