<?xml version="1.0" encoding="UTF-8"?><svg id="Layer_2" xmlns="http://www.w3.org/2000/svg" viewBox="0 0 61.56 53.81"><defs><style>.cls-1{stroke-width:2px;}.cls-1,.cls-2{fill:none;stroke:#fff;stroke-linecap:round;stroke-linejoin:round;}.cls-2{stroke-width:3px;}</style></defs><g id="Layer_1-2"><g id="Snow"><path class="cls-2" d="M12.69,40.44c-6.18,0-11.19-4.4-11.19-10.58,0-5.29,3.66-9.72,8.59-10.89-.3-.9-.47-1.87-.47-2.87,0-4.98,4.03-9.01,9.01-9.01,2.47,0,4.71,.99,6.33,2.6h0c2.19-4.83,7.06-8.19,12.71-8.19,7.71,0,13.95,6.25,13.95,13.95,0,.99-.3,2.88-.3,2.88h0c5,1.12,8.73,5.58,8.73,10.92,0,6.18-5.01,11.19-11.19,11.19"/><g><line class="cls-1" x1="30.78" y1="28.06" x2="30.78" y2="52.81"/><line class="cls-1" x1="43.16" y1="40.44" x2="18.41" y2="40.44"/><polyline class="cls-1" points="20.41 36.86 23.99 40.44 20.41 44.02"/><polyline class="cls-1" points="41.16 44.02 37.57 40.44 41.16 36.86"/><polyline class="cls-1" points="27.2 50.81 30.78 47.23 34.36 50.81"/><polyline class="cls-1" points="34.36 30.06 30.78 33.65 27.2 30.06"/><line class="cls-1" x1="39.53" y1="31.69" x2="22.03" y2="49.19"/><line class="cls-1" x1="39.53" y1="49.19" x2="22.03" y2="31.69"/></g></g></g></svg>