<?xml version="1.0" encoding="UTF-8"?><svg id="Layer_2" xmlns="http://www.w3.org/2000/svg" viewBox="0 0 62.42 51.26"><defs><style>.cls-1{fill:none;stroke:#fff;stroke-linecap:round;stroke-linejoin:round;stroke-width:3px;}</style></defs><g id="Layer_1-2"><g id="Sunrise"><path class="cls-1" d="M43.97,41.77c2.4-2.87,3.85-6.57,3.85-10.61,0-9.14-7.41-16.56-16.56-16.56S14.7,22.01,14.7,31.16c0,4.04,1.44,7.73,3.84,10.61"/><line class="cls-1" x1="31.26" y1="7.59" x2="31.26" y2="2.38"/><line class="cls-1" x1="1.55" y1="31.16" x2="6.77" y2="31.16"/><line class="cls-1" x1="9.84" y1="9.74" x2="13.94" y2="13.84"/><line class="cls-1" x1="52.68" y1="9.74" x2="48.58" y2="13.84"/><g><line class="cls-1" x1="48.58" y1="13.84" x2="52.68" y2="9.74"/><line class="cls-1" x1="9.79" y1="9.79" x2="13.89" y2="13.89"/><line class="cls-1" x1="31.21" y1="1.5" x2="31.21" y2="6.71"/><line class="cls-1" x1="6.71" y1="31.21" x2="1.5" y2="31.21"/><line class="cls-1" x1="60.92" y1="31.21" x2="55.7" y2="31.21"/></g><line class="cls-1" x1="4.11" y1="49.76" x2="58.31" y2="49.76"/></g></g></svg>